<?xml version="1.0" encoding="utf-8"?>
<!-- Generator: Adobe Illustrator 18.0.0, SVG Export Plug-In . SVG Version: 6.00 Build 0)  -->
<!DOCTYPE svg PUBLIC "-//W3C//DTD SVG 1.1//EN" "http://www.w3.org/Graphics/SVG/1.1/DTD/svg11.dtd">
<svg version="1.1" id="Layer_1" xmlns="http://www.w3.org/2000/svg" xmlns:xlink="http://www.w3.org/1999/xlink" x="0px" y="0px"
	 viewBox="0 0 220.2 43.1" enable-background="new 0 0 220.2 43.1" xml:space="preserve">
<g>
	<path fill="#71BCC6" d="M17.2,11.3c4.3,0,7.7,3.4,7.7,7.7c0,4.2-3.4,7.6-7.7,7.6c-4.2,0-7.6-3.4-7.6-7.6
		C9.6,14.7,13,11.3,17.2,11.3z"/>
	<path fill="#71BCC6" d="M28.7,7.1l0.1,0.2c3,2.9,4.9,7,4.9,11.7c0,4.4-1.7,8.4-4.6,11.4c-0.3-0.8-0.7-1.5-1.3-2
		c-0.1-0.1-0.3-0.2-0.5-0.3c2.2-2.4,3.4-5.6,3.4-9c0-3.6-1.4-7-3.7-9.4V9.6l0,0C27.8,8.9,28.4,8,28.7,7.1z M18.6,35.4
		c-0.4,0.1-0.8,0.1-1.3,0.1c-4.5,0-8.7-1.9-11.7-4.8c-0.9-1-1.7-2-2.4-3.2c1-0.1,2-0.5,2.7-1.1c0.5,0.8,1.1,1.5,1.8,2.2
		c2.4,2.5,5.9,4,9.6,4c0.2,0,0.4,0,0.6,0l0,0C17.8,33.6,18.1,34.5,18.6,35.4z M0.8,18.6c0.1-4.4,2-8.4,4.8-11.3
		C8.3,4.6,12,2.8,16,2.5c-0.2,0.7-0.3,1.5-0.3,2.3c0,0.2,0,0.4,0,0.6c-3.1,0.3-5.9,1.8-8,3.9c-2.3,2.3-3.8,5.4-4,8.9
		c-0.3-0.1-0.6-0.1-1-0.1C2,18.2,1.4,18.3,0.8,18.6z"/>
	<path fill="#71BCC6" d="M2.7,20.1c1.5,0,2.8,1.2,2.8,2.7c0,1.5-1.3,2.8-2.8,2.8c-1.5,0-2.7-1.3-2.7-2.8C0,21.3,1.2,20.1,2.7,20.1z"
		/>
	<path fill="#71BCC6" d="M22.4,0c2.7,0,4.8,2.2,4.8,4.8c0,2.7-2.2,4.8-4.8,4.8c-2.7,0-4.8-2.2-4.8-4.8C17.6,2.2,19.7,0,22.4,0z"/>
	<path fill="#71BCC6" d="M23.7,28.5c2.2,0,4,1.8,4,4c0,2.2-1.8,4-4,4c-2.2,0-4-1.7-4-4C19.7,30.4,21.5,28.5,23.7,28.5z"/>
</g>
<g>
	<path fill="#FFFFFF" d="M59.4,10.8v16.2h-4.4v-6.3h-9.7v6.3H41V10.8h4.4v5.9h9.7v-5.9H59.4z"/>
	<path fill="#FFFFFF" d="M70.1,27.1c-1.5,0-2.7-0.2-3.8-0.7c-1.1-0.5-2-1.1-2.7-1.9c-0.7-0.7-1.2-1.5-1.5-2.5
		c-0.4-0.9-0.6-1.9-0.6-3c0-1.2,0.2-2.3,0.7-3.3c0.5-1,1.1-1.9,1.9-2.7c0.7-0.7,1.6-1.2,2.6-1.6c1-0.4,2.1-0.6,3.4-0.6h3.4
		c1.3,0,2.5,0.2,3.4,0.6c1,0.4,1.8,0.9,2.6,1.6c0.8,0.8,1.5,1.6,1.9,2.7c0.5,1,0.7,2.1,0.7,3.3c0,1.1-0.2,2.1-0.6,3
		c-0.4,0.9-0.9,1.8-1.5,2.5c-0.8,0.8-1.7,1.5-2.7,1.9c-1.1,0.5-2.3,0.7-3.8,0.7H70.1z M70.1,15.1c-0.7,0-1.3,0.1-1.8,0.3
		s-0.9,0.4-1.2,0.8c-0.4,0.4-0.7,0.8-0.9,1.2c-0.2,0.5-0.3,1-0.3,1.5c0,0.5,0.1,1,0.3,1.4c0.2,0.4,0.4,0.8,0.7,1.2
		c0.4,0.4,0.8,0.7,1.3,0.9c0.5,0.2,1.2,0.3,1.9,0.3h3.4c0.8,0,1.4-0.1,1.9-0.3c0.5-0.2,1-0.5,1.3-0.9c0.3-0.3,0.6-0.7,0.7-1.2
		c0.2-0.4,0.3-0.9,0.3-1.4c0-0.5-0.1-1.1-0.3-1.5s-0.5-0.9-0.9-1.2c-0.4-0.3-0.8-0.6-1.2-0.8s-1.1-0.3-1.8-0.3H70.1z"/>
	<path fill="#FFFFFF" d="M101.2,15.1H89.5c-0.3,0-0.5,0-0.6,0.1c-0.2,0.1-0.3,0.1-0.4,0.2c-0.2,0.2-0.3,0.5-0.3,0.8
		c0,0.4,0.1,0.6,0.4,0.9c0.1,0.1,0.2,0.1,0.3,0.2c0.1,0,0.3,0.1,0.6,0.1h7.1c0.9,0,1.7,0.1,2.3,0.4c0.6,0.3,1.2,0.6,1.6,1.1
		c0.4,0.4,0.8,1,1,1.5c0.2,0.6,0.4,1.2,0.4,1.8c0,0.6-0.1,1.2-0.3,1.7c-0.2,0.5-0.5,1-0.9,1.5c-0.4,0.5-1,0.9-1.7,1.2
		c-0.7,0.3-1.5,0.5-2.4,0.5H84.1v-4.2h11.8c0.3,0,0.6,0,0.8-0.1c0.2-0.1,0.3-0.2,0.4-0.3c0.2-0.2,0.3-0.5,0.3-0.7
		c0-0.4-0.1-0.6-0.3-0.9c-0.1-0.1-0.3-0.2-0.4-0.3s-0.4-0.1-0.7-0.1h-6.6c-1.1,0-2-0.1-2.6-0.4c-0.7-0.3-1.2-0.6-1.6-1.1
		c-0.4-0.4-0.8-1-1-1.5c-0.2-0.6-0.4-1.2-0.4-1.9c0-0.7,0.1-1.3,0.4-1.8c0.2-0.6,0.6-1.1,1-1.5s1-0.8,1.6-1.1
		c0.7-0.3,1.5-0.4,2.6-0.4h11.9V15.1z"/>
	<path fill="#FFFFFF" d="M115.5,10.8c1.2,0,2.1,0.2,2.9,0.5c0.8,0.3,1.4,0.7,2,1.3c0.6,0.6,1,1.2,1.3,2c0.3,0.8,0.5,1.5,0.5,2.4
		c0,0.7-0.1,1.4-0.4,2.1c-0.2,0.7-0.6,1.3-1,1.8c-0.6,0.7-1.3,1.2-2.1,1.6s-1.9,0.6-3.1,0.6h-7.5v4.1h-4.3V11.8c0-0.7,0.4-1,1.1-1
		H115.5z M115.6,19c0.5,0,0.9-0.1,1.2-0.2c0.3-0.1,0.5-0.3,0.7-0.6c0.3-0.3,0.4-0.7,0.4-1.2c0-0.5-0.1-0.9-0.4-1.2
		c-0.2-0.2-0.4-0.4-0.7-0.5c-0.3-0.1-0.7-0.2-1.1-0.2h-7.2c-0.2,0-0.3,0.1-0.3,0.3V19H115.6z"/>
	<path fill="#FFFFFF" d="M128.4,10.8v16.2H124V10.8H128.4z"/>
	<path fill="#FFFFFF" d="M148.7,10.8v4.3h-7.1v11.9h-4.4V15.1h-7.1v-4.3H148.7z"/>
	<path fill="#FFFFFF" d="M167.4,10.8v4.3h-12.3c-0.3,0-0.4,0.1-0.4,0.4v1.8h12.6v3.1h-12.6v2c0,0.3,0.1,0.4,0.4,0.4h12.3v4.2h-14.8
		c-1.5,0-2.3-0.8-2.3-2.3V13c0-1.5,0.8-2.2,2.3-2.2H167.4z"/>
	<path fill="#FFFFFF" d="M186.2,27.1h-8.5c-1.5,0-2.7-0.2-3.8-0.7c-1.1-0.5-2-1.1-2.7-1.9c-0.7-0.7-1.2-1.5-1.5-2.5
		c-0.4-0.9-0.6-1.9-0.6-3c0-1.2,0.2-2.3,0.7-3.3c0.5-1,1.1-1.9,1.9-2.7c0.7-0.7,1.6-1.2,2.6-1.6c1-0.4,2.1-0.6,3.4-0.6h8.5v4.3h-8.5
		c-0.7,0-1.3,0.1-1.8,0.3s-0.9,0.4-1.2,0.8c-0.4,0.4-0.7,0.8-0.9,1.2c-0.2,0.5-0.3,1-0.3,1.5c0,0.5,0.1,1,0.3,1.4
		c0.2,0.4,0.4,0.8,0.7,1.2c0.4,0.4,0.8,0.7,1.3,0.9c0.5,0.2,1.2,0.3,1.9,0.3h8.5V27.1z"/>
	<path fill="#FFFFFF" d="M206.7,10.8v16.2h-4.4v-6.3h-9.7v6.3h-4.4V10.8h4.4v5.9h9.7v-5.9H206.7z"/>
</g>
</svg>
